<svg data-name="Component 20 – 3" xmlns="http://www.w3.org/2000/svg" width="180" height="25.15" viewBox="0 0 180 25.15">
    <path data-name="Path 84" d="M113.511 113.8H111.1v7.428h.977v-2.737h1.368c1.629 0 2.671-.912 2.671-2.346a2.3 2.3 0 0 0-2.605-2.345zm-1.368.977h1.433c1.042 0 1.629.521 1.629 1.368s-.652 1.368-1.629 1.368h-1.433z" transform="translate(-111.1 -104.939)" style="fill:#010101"/>
    <path data-name="Path 85" d="M127.113 113.7a3.686 3.686 0 0 0-3.714 3.779 3.75 3.75 0 0 0 7.493.326v-.326a3.782 3.782 0 0 0-3.779-3.779zm2.737 3.779a2.74 2.74 0 1 1-5.473.261v-.261a2.74 2.74 0 0 1 5.473-.261l-.001.261z" transform="translate(-115.418 -104.904)" style="fill:#010101"/>
    <path data-name="Path 86" d="m145.637 119.338-1.824-4.822h-.521l-1.824 4.822-1.76-5.338-.065-.2H138.6l2.346 7.232.065.2h.717l1.824-4.691 1.759 4.691h.717l2.472-7.432h-1.042z" transform="translate(-120.756 -104.939)" style="fill:#010101"/>
    <path data-name="Path 87" d="M159.277 117.9h3.523v-.977h-3.518v-2.15h3.975v-.973H158.3v7.428h5.082v-.977h-4.1z" transform="translate(-127.666 -104.939)" style="fill:#010101"/>
    <path data-name="Path 88" d="M176.317 116.015a2.233 2.233 0 0 0-2.476-2.215H171.3v7.428h.977v-3h1.173l2.085 3h1.173l-2.15-3.128a2.108 2.108 0 0 0 1.759-2.085zm-4.1 1.238v-2.476h1.564c.977 0 1.5.456 1.5 1.238s-.586 1.238-1.5 1.238z" transform="translate(-132.229 -104.939)" style="fill:#010101"/>
    <path data-name="Path 89" d="M185.177 117.9h3.453v-.977h-3.453v-2.15h3.909v-.973H184.2v7.428h5.082v-.977h-4.1z" transform="translate(-136.755 -104.939)" style="fill:#010101"/>
    <path data-name="Path 90" d="M199.511 113.8H197.1v7.428h2.411a3.722 3.722 0 0 0 .456-7.428zm-1.433.977h1.433a2.737 2.737 0 1 1 0 5.473h-1.433z" transform="translate(-141.285 -104.939)" style="fill:#010101"/>
    <path data-name="Path 91" d="M223.765 117.286a1.592 1.592 0 0 0 .652-1.433 2.03 2.03 0 0 0-2.085-1.955H219.4v7.428h2.932a2.187 2.187 0 0 0 2.476-2.15 2.038 2.038 0 0 0-1.043-1.89zm-1.433-.391h-1.89v-2.15h1.758c.782 0 1.238.391 1.238 1.042a1.074 1.074 0 0 1-.977 1.108zm-1.89 3.388v-2.476h1.958a1.261 1.261 0 0 1 1.433 1.238c0 1.043-.977 1.238-1.5 1.238z" transform="translate(-149.111 -104.972)" style="fill:#010101"/>
    <path data-name="Path 92" d="m236.278 113.8-2.085 3.127-2.02-3.127H231l2.737 4.1v3.323h.977V117.9l2.737-4.1z" transform="translate(-153.184 -104.939)" style="fill:#010101"/>
    <path data-name="Path 93" d="M333.941 122.263H331.4V106.3h2.541v6.255a3.965 3.965 0 0 1 3.059-1.368c2.671 0 3.909 1.89 3.909 4.235v6.778h-2.541v-6.32c0-1.3-.586-2.411-2.215-2.411-1.433 0-2.15 1.042-2.215 2.411z" transform="translate(-188.43 -102.325)" style="fill:#010101"/>
    <path data-name="Path 94" d="m351.988 118.787 2.737-.391c.586-.065.782-.391.782-.782 0-.912-.586-1.629-2.02-1.629a2.137 2.137 0 0 0-2.215 1.89v.065l-2.346-.521a4.237 4.237 0 0 1 4.5-3.518c3.323 0 4.561 1.89 4.561 4.04v5.343a13.74 13.74 0 0 0 .13 1.694H355.7a9.725 9.725 0 0 1-.13-1.368 3.71 3.71 0 0 1-3.323 1.694 3.412 3.412 0 0 1-3.649-3.258c.132-1.956 1.566-2.999 3.39-3.259zm3.518 1.694v-.456l-2.8.391a1.491 1.491 0 0 0-1.433 1.433 1.352 1.352 0 0 0 1.433 1.368h.13a2.418 2.418 0 0 0 2.672-2.737z" transform="translate(-194.467 -104.974)" style="fill:#010101"/>
    <path data-name="Path 95" d="M367.527 106a1.682 1.682 0 0 1 1.694 1.694 1.662 1.662 0 1 1-1.694-1.694zm-1.3 16.159v-10.686h2.541v10.751z" transform="translate(-200.52 -102.221)" style="fill:#010101"/>
    <path data-name="Path 96" d="M376.341 124.877H373.8v-10.751h2.476v1.433a3.689 3.689 0 0 1 3.193-1.759c2.606 0 3.844 1.89 3.844 4.235v6.776h-2.541v-6.32c0-1.3-.586-2.411-2.215-2.411a2.251 2.251 0 0 0-2.215 2.541z" transform="translate(-203.313 -104.939)" style="fill:#010101"/>
    <path data-name="Path 97" d="M318.875 116.69a4.772 4.772 0 0 1-4.691 3.323c-2.671 0-5.147-1.955-5.147-5.6 0-3.779 2.606-5.669 5.147-5.669a4.808 4.808 0 0 1 4.626 3.062l2.15-1.238a6.848 6.848 0 0 0-6.776-4.365 7.846 7.846 0 0 0-7.884 8.145 7.735 7.735 0 0 0 7.884 8.145 7.052 7.052 0 0 0 6.907-4.561z" transform="translate(-179.633 -102.291)" style="fill:#010101"/>
    <path data-name="Path 98" d="m284.7 111.7-2.671 1.564 3.583 2.085v7.3l-6.32 3.584-6.255-3.584v-7.3l3.584-2.085-.456-.326-2.215-1.238-3.649 2.085v10.36l8.992 5.213 8.992-5.213v-10.36z" transform="translate(-167.003 -104.207)" style="fill:#010101"/>
    <path data-name="Path 99" d="m267.592 100.2-8.992 5.212v10.36l3.649 2.085 2.15-1.3.521-.261-3.649-2.085v-7.3l6.32-3.649 6.32 3.649v7.3l-3.649 2.085 2.738 1.561 3.584-2.085v-10.36z" transform="translate(-162.895 -100.2)" style="fill:#010101"/>
</svg>
