<svg xmlns="http://www.w3.org/2000/svg" width="179.426" height="22.553" viewBox="0 0 179.426 22.553">
    <path data-name="Path 1" d="m323.838 14.536 4.755 6.124a11.038 11.038 0 0 0 1.765-3.242c.18-.648-.288-1.009-.865-1.153-.4-.108-.829-.18-1.369-.288.612-.432 6.52-.432 7.169 0a4.8 4.8 0 0 1-.684.18 4.115 4.115 0 0 0-3.53 2.161c-.5.9-1.189 1.729-1.765 2.594a.816.816 0 0 0-.036.648c.684.9 1.4 1.8 2.161 2.63a3.33 3.33 0 0 0 2.594 1.3c.108 0 .252.108.36.324a3.374 3.374 0 0 1-.576.144c-1.369 0-2.7.036-4.071 0a1.379 1.379 0 0 1-.865-.468c-.576-.648-1.045-1.333-1.621-2.089-.324.288-.576.54-.865.793-1.981 1.729-4.215 2.63-6.844 1.837a5.068 5.068 0 0 1-2.305-8.646 17.307 17.307 0 0 1 2.918-2.125 4.106 4.106 0 0 1 .684-.36c-.324-.576-.648-1.081-.9-1.585-.9-1.765-1.189-3.494-.036-5.259A4.9 4.9 0 0 1 325.027 6a3.768 3.768 0 0 1 3.026 2.7 3.7 3.7 0 0 1-1.333 3.818c-.973.721-1.909 1.406-2.882 2.018zm2.954 8.177a671.08 671.08 0 0 0-5.187-6.88c-.252-.36-.5-.216-.793-.036a4.789 4.789 0 0 0-1.981 5.476 4.03 4.03 0 0 0 3.206 3.242c1.909.396 3.314-.615 4.755-1.802zm-.36-13.4a4.415 4.415 0 0 0-.072-.684 2.34 2.34 0 0 0-2.341-2.053 2.188 2.188 0 0 0-2.306 2.124 6.518 6.518 0 0 0 1.333 4.719.686.686 0 0 0 .684.18 4.828 4.828 0 0 0 2.7-4.287z" transform="translate(-202.425 -3.765)" style="fill:#010101"/>
    <path data-name="Path 2" d="M449.909 13.1a8.718 8.718 0 0 1 8.609 8.79 8.612 8.612 0 1 1-8.609-8.79zm5.079 8.862a12.311 12.311 0 0 0-.684-4.719 5.578 5.578 0 0 0-2.017-2.774 4.188 4.188 0 0 0-5.8.973 4.24 4.24 0 0 0-.4.684 13.124 13.124 0 0 0 .036 11.816 4.166 4.166 0 0 0 1.657 1.693c2.269 1.369 5.007.36 6.2-2.2a11.583 11.583 0 0 0 1.009-5.473z" transform="translate(-283.02 -8.381)" style="fill:#010101"/>
    <path data-name="Path 3" d="M13.545 22.334c-.612.5-8.537.54-9.258.144a1.488 1.488 0 0 1 .4-.252 1.226 1.226 0 0 1 .36-.036c1.945-.18 2.269-.54 2.269-2.522V2.557c0-.937-.036-.937-.973-.937a5.265 5.265 0 0 0-5.262 3.315C.829 5.511.54 6.087.252 6.664l-.216-.036C.036 6.412 0 6.2 0 5.979V1.693C0 1.116.18.9.756.9H17c.36 0 .72.036.756.54v4.9a1.81 1.81 0 0 1-.18.468c-.216-.324-.36-.5-.468-.684-.36-.72-.684-1.477-1.081-2.161-1.222-1.982-3.127-2.415-5.22-2.307-.144 0-.288.288-.432.432-.036.036 0 .108 0 .144v18.012c0 1.4.432 1.765 1.837 1.909.396.037.756.109 1.333.181z" transform="translate(0 -.576)" style="fill:#010101"/>
    <path data-name="Path 4" d="M402.019 15.706v.973c-.036 1.045-.108 2.089-.18 3.134a1.414 1.414 0 0 1-.756 1.261c-6.628 3.6-15.6.4-17.255-7.673-1.261-6.124 3.314-12.392 9.654-13.256a11.506 11.506 0 0 1 5.187.576 4.148 4.148 0 0 0 1.693.4c.432-.072.793-.648 1.333-1.117.288 2.2.108 4.359.288 6.484l-.324.072c-.108-.216-.216-.468-.324-.684a7.332 7.332 0 0 0-3.314-4.287 6.43 6.43 0 0 0-8.721 2.482 11.578 11.578 0 0 0-1.621 4.971c-.324 3.134-.144 6.232 1.513 9.042a7.011 7.011 0 0 0 7.1 3.6 6.119 6.119 0 0 0 4.467-3.53 17.538 17.538 0 0 0 .756-1.909c.072-.216.18-.4.252-.612z" transform="translate(-246.116)" style="fill:#010101"/>
    <path data-name="Path 5" d="M213.094 16.845v10.086a11.419 11.419 0 0 0 .252 2.2 1.434 1.434 0 0 0 1.4 1.261 2.009 2.009 0 0 1 1.009.36 39.223 39.223 0 0 1-5.8.216l-.036-.324.648-.216a1.612 1.612 0 0 0 1.441-1.441 8.7 8.7 0 0 0 .18-1.693c.036-3.494 0-6.988 0-10.483 0-1.621-.54-2.233-2.089-2.522-.18-.036-.324-.108-.5-.144v-.216a3 3 0 0 1 .54-.144c1.333 0 2.666-.036 4 .036a1.464 1.464 0 0 1 .829.576c2.81 3.638 5.584 7.277 8.357 10.951a7.293 7.293 0 0 0 .576.684c.036-.36.072-.54.072-.756v-7.638a8.7 8.7 0 0 0-.18-1.693 1.561 1.561 0 0 0-1.549-1.549c-.324-.072-.648-.144-1.045-.252.5-.468 5.439-.5 6.088-.036a8.41 8.41 0 0 1-.9.252 1.354 1.354 0 0 0-1.3 1.189 13.706 13.706 0 0 0-.216 2.125c0 4.071 0 8.177-.036 12.248a6.306 6.306 0 0 1-.216 1.189 6.173 6.173 0 0 1-.9-.793c-3.386-4.359-6.772-8.682-10.158-13.04a1.027 1.027 0 0 1-.467-.433z" transform="translate(-134.416 -8.812)" style="fill:#010101"/>
    <path data-name="Path 6" d="M96.95 25.2a1.079 1.079 0 0 1-.144-.288 2.516 2.516 0 0 0-2.486-2.125c-1.8-.252-1.873-.216-1.873 1.621v4.359c0 1.477.432 1.8 1.8 1.909a6.109 6.109 0 0 1 .793.144c-.5.432-7.277.468-8.141.072l.865-.216c1.3-.108 1.621-.432 1.621-1.729V16.2c0-1.225-.4-1.585-1.621-1.693a5.1 5.1 0 0 1-.72-.144v-.216a4.188 4.188 0 0 1 .649-.147h11.059c.648 0 .829.216.829.829-.036 1.009 0 2.053 0 3.062a3.55 3.55 0 0 1-.072.612l-.18.036c-.108-.18-.18-.36-.288-.576a4.362 4.362 0 0 0-4.575-3.314c-2.414-.036-2.017-.36-2.053 1.981-.036 1.585 0 3.17 0 4.791 0 .54.144.793.72.756.36-.036.756 0 1.153-.036a2.474 2.474 0 0 0 2.484-1.981 4.042 4.042 0 0 1 .18-.468c.433.396.433 4.935 0 5.508z" transform="translate(-55.725 -8.957)" style="fill:#010101"/>
    <path data-name="Path 7" d="M135.949 30.823c-.648.432-7.529.432-8.249 0 .432-.072.684-.144.973-.18 1.117-.108 1.477-.4 1.513-1.477q.108-4.053.108-8.105c0-1.693 0-3.386-.072-5.043-.072-1.153-.4-1.441-1.621-1.549-.252-.036-.468-.072-.72-.108v-.216a4.188 4.188 0 0 1 .648-.144h11.131c.432 0 .793.036.793.576v3.566a1.883 1.883 0 0 1-.216.576 6.377 6.377 0 0 1-.36-.793 4.425 4.425 0 0 0-4.5-3.278c-.468 0-.937.036-1.441 0-.576-.036-.72.216-.72.756.036 2.017 0 4.035 0 6.052 0 .5.144.756.684.72.432-.036.865 0 1.3-.036a2.394 2.394 0 0 0 2.378-1.981 2.205 2.205 0 0 1 .18-.432c.4.432.468 4.827.072 5.62a3.245 3.245 0 0 1-.252-.4 2.435 2.435 0 0 0-2.378-2.053c-1.981-.252-1.981-.252-1.981 1.693v4.215c0 1.4.4 1.837 1.837 1.945a2.48 2.48 0 0 1 .893.076z" transform="translate(-81.888 -8.957)" style="fill:#010101"/>
    <path data-name="Path 8" d="M260.8 14.224c.684-.432 6.772-.432 7.349 0-.4.108-.72.18-1.045.288-.72.216-.973.612-.648 1.261a358.465 358.465 0 0 0 3.53 6.34c0 .036.072.036.18.072.612-1.153 1.225-2.341 1.837-3.494.432-.865.9-1.729 1.333-2.594.5-.973.252-1.441-.829-1.657a6.494 6.494 0 0 1-.684-.18c.5-.432 4.359-.468 5.151-.072a4.293 4.293 0 0 1-.72.288 2.435 2.435 0 0 0-1.8 1.261c-1.261 2.341-2.558 4.683-3.818 7.024a1.49 1.49 0 0 0-.18.684c0 1.765 0 3.566.036 5.331.036 1.441.324 1.765 1.729 1.873a3.244 3.244 0 0 1 .576.108l.036.18a1.11 1.11 0 0 1-.432.18h-6.916c-.108 0-.252-.072-.4-.324a5.266 5.266 0 0 1 .72-.18c1.189-.108 1.585-.432 1.621-1.621a117.75 117.75 0 0 0 0-5.043 2.046 2.046 0 0 0-.252-.793c-1.369-2.522-2.774-5.043-4.143-7.565a2.045 2.045 0 0 0-1.477-1.117 1.8 1.8 0 0 0-.754-.25z" transform="translate(-167.247 -8.893)" style="fill:#010101"/>
    <path data-name="Path 9" d="M178.311 30.015H171.5l-.036-.216c.216-.072.432-.18.648-.252.865-.288 1.261-.793.973-1.657-.4-1.261-.865-2.45-1.369-3.674a.743.743 0 0 0-.612-.36 85.099 85.099 0 0 0-4.287 0 .972.972 0 0 0-.72.5 32.663 32.663 0 0 0-1.153 3.134c-.432 1.261-.144 1.765 1.189 2.089.108.036.252.108.36.144-.36.432-4.647.5-5.3.036a2.2 2.2 0 0 1 .5-.252 3.226 3.226 0 0 0 2.522-2.341c.9-2.486 1.873-4.935 2.774-7.385a502.63 502.63 0 0 1 2.522-6.664 3.25 3.25 0 0 1 .5-.72 3.228 3.228 0 0 1 .54.684c1.765 4.647 3.494 9.294 5.259 13.941.144.432.36.829.54 1.261a2 2 0 0 0 1.513 1.261 1.81 1.81 0 0 1 .468.18zm-9.33-13.04-.18.036-2.233 6.124h4.755a386.562 386.562 0 0 0-2.342-6.16z" transform="translate(-103.376 -7.933)" style="fill:#010101"/>
    <path data-name="Path 10" d="M56.008 14.244c.684-.5 7.637-.468 8.249-.036a4.765 4.765 0 0 1-.865.144c-1.4.108-1.765.468-1.765 1.837v12.392c0 1.513.324 1.873 1.873 1.945a5.1 5.1 0 0 1 .72.144c-.5.468-7.637.5-8.321 0 .4-.072.684-.144.973-.18 1.261-.072 1.729-.468 1.729-1.765q.054-6.376 0-12.752c0-1.189-.432-1.585-1.657-1.693a2.732 2.732 0 0 1-.936-.036z" transform="translate(-35.763 -8.877)" style="fill:#010101"/>
    <path data-name="Path 11" d="M493.785 54.127a1.845 1.845 0 0 1-1.693 1.837 1.792 1.792 0 0 1-1.8-1.729 1.709 1.709 0 0 1 1.621-1.837h.108a1.76 1.76 0 0 1 1.764 1.729z" transform="translate(-314.359 -33.522)" style="fill:#010101"/>
</svg>
